<?xml version="1.0" encoding="utf-8"?>
<!-- Generator: Adobe Illustrator 24.0.1, SVG Export Plug-In . SVG Version: 6.00 Build 0)  -->
<svg version="1.1" id="Livello_1" xmlns="http://www.w3.org/2000/svg" xmlns:xlink="http://www.w3.org/1999/xlink" x="0px" y="0px"
	 viewBox="0 0 82 25" style="enable-background:new 0 0 82 25;" xml:space="preserve">
<style type="text/css">
	.st0{fill:#FFFFFF;}
</style>
<path class="st0" d="M16.6,10.8c-2.5-0.8-5.1-1.5-7.7-1.9l-7.4,5.9l0,0c3.8,0,7.7,0.5,11.4,1.6L16.6,10.8z M17.3,9.8l6.4-9.4h-4
	l-9.5,7.6C12.6,8.4,15,9,17.3,9.8 M24.3,0.3l-5.7,9.9c1.9,0.7,3.8,1.6,5.7,2.5L24.3,0.3L24.3,0.3z M1.5,8.3v4.2L7,8.6
	C5.1,8.4,3.3,8.3,1.5,8.3 M1.5,0.3V6l12.1-5.7L1.5,0.3z M1.5,7.2c2.3,0,4.6,0.2,6.8,0.5l10.3-7.3h-3.8L1.5,7.2 M24.4,23.2
	c-3.1-2.2-6.6-3.9-10.2-5.1l-2.9,5.1H24.4 M24.4,14.1c-2-1.1-4.1-2-6.3-2.8L14.8,17c3.4,1.1,6.6,2.7,9.6,4.7V14.1z M1.5,16.1v7.1
	h6.8l3.8-5.7C8.7,16.6,5.1,16.1,1.5,16.1"/>
<g>
	<path class="st0" d="M80.3,14.4L80.3,14.4c-0.2,0-0.3,0-0.5,0c-0.5,0-0.6-0.2-0.6-0.9V7.7c0-2.4-2.4-3.3-4.6-3.3h-0.5
		c-1.6,0.1-3.1,0.5-3.9,1.6c-0.5,0.6-0.8,1.4-0.9,2.2c0,0,0,0,0,0.1c0,0,0,0,0.1,0h2.3h0.1c0,0,0,0,0-0.1c0.1-1.1,1-1.7,2.3-1.7h0.3
		c1,0,2.4,0.2,2.4,1.6c0,0.8-0.5,1.1-1.2,1.3c-0.5,0.1-1.2,0.2-2.1,0.3h-0.2c-2.1,0.2-4.4,0.7-4.4,3.6l0,0c0,2.2,1.9,3.3,3.9,3.3
		c1.4,0,2.9-0.4,4-1.4c0.2,1,0.9,1.4,2,1.4c0.5,0,1-0.1,1.5-0.3l0,0c0,0,0.1-0.1,0.1-0.2L80.3,14.4C80.3,14.5,80.2,14.4,80.3,14.4
		 M73.7,14.4c-0.9,0-2.3-0.3-2.3-1.5c0-1.3,1-1.7,2.1-1.9c1.1-0.2,2.3-0.2,3.1-0.7v1.9C76.6,13.9,74.8,14.4,73.7,14.4"/>
	<path class="st0" d="M47.6,12.5h-2.2c0,0,0,0-0.1,0c0,0-0.1,0-0.1,0.1v0.1c-0.3,0.9-1.2,1.6-2.1,1.7c-0.2,0-0.4,0-0.6,0
		c-2.1,0-3.1-1.6-3.1-3.4H48c0,0,0-0.1,0-0.1v-0.1c0,0,0,0,0,0l0,0v-0.3l0,0c0.1-3.2-2.1-6.2-5.5-6.2s-5.6,2.8-5.6,6.1l0,0
		c0,3.5,2.1,6,5.7,6c0.7,0,1.4-0.1,2-0.4l0.1,0l0.1,0h0.1c1.5-0.5,2.6-1.8,3-3.3C47.8,12.5,47.7,12.6,47.6,12.5 M42.5,6.4
		c1.7,0,2.8,1.4,2.9,3h-5.9C39.4,7.7,40.7,6.4,42.5,6.4C42.4,6.4,42.4,6.4,42.5,6.4"/>
	<path class="st0" d="M56.4,4.5c0,0,0-0.1-0.1-0.1c-0.3,0-0.6-0.1-0.9-0.1c-1.5,0.1-2.9,1.1-3.3,2.5h0V4.8c0-0.1,0-0.1-0.1-0.1h-2.2
		c0,0-0.1,0-0.1,0c0,0,0,0.1,0,0.1V5l0,0V16c0,0,0,0.2,0.1,0.2h2.3c0,0,0.1,0,0.1,0c0,0,0-0.1,0-0.1v-0.3l0,0v-5.1
		c0-2.5,1.4-3.9,3.1-3.9c0.3,0,0.7,0,1,0.1c0,0,0,0,0.1,0l0,0c0,0,0,0,0-0.1V4.5"/>
	<path class="st0" d="M57.7,16.1C57.7,16.1,57.8,16.1,57.7,16.1h2.4c0,0,0.1,0,0.1,0c0,0,0-0.1,0-0.1V9.4c-0.1-1.5,1-2.9,2.5-3
		c0.1,0,0.2,0,0.3,0c1.5,0,2.2,0.8,2.2,2.6v7.2h2.4c0,0,0.1,0,0.1,0c0,0,0,0,0-0.1V8.3c0-2.6-1.6-3.9-4.1-3.9
		c-1.5,0-2.8,0.8-3.6,2.1h0V5.1l0,0V4.8l0,0c0,0,0-0.1,0-0.1c0,0,0,0-0.1,0h-2.2c0,0,0,0-0.1,0c0,0,0,0.1,0,0.1V5l0,0L57.7,16.1
		L57.7,16.1C57.7,16.1,57.7,16.1,57.7,16.1"/>
	<path class="st0" d="M26.9,2.7h4.8V16c0,0,0,0.2,0.2,0.2h2.7c0,0,0.1,0,0.1-0.2V2.7h4.8c0.1,0,0.1-0.1,0.1-0.1V0.4c0,0,0-0.1,0-0.1
		c0,0-0.1,0-0.1,0H26.9c-0.1,0-0.1,0.1-0.1,0.1v2.2C26.8,2.6,26.8,2.7,26.9,2.7"/>
</g>
<g>
	<path class="st0" d="M29.3,17.6c0.4,0,0.7,0.1,1,0.2c0.3,0.1,0.6,0.3,0.8,0.5c0.2,0.2,0.4,0.5,0.5,0.9c0.1,0.3,0.2,0.7,0.2,1.2
		c0,0.4-0.1,0.8-0.2,1.1c-0.1,0.3-0.3,0.6-0.5,0.9c-0.2,0.2-0.5,0.4-0.8,0.6c-0.3,0.1-0.7,0.2-1.1,0.2h-2.4v-5.5H29.3z M29.2,22.1
		c0.2,0,0.3,0,0.5-0.1c0.2-0.1,0.3-0.2,0.4-0.3c0.1-0.1,0.2-0.3,0.3-0.5c0.1-0.2,0.1-0.5,0.1-0.8c0-0.3,0-0.5-0.1-0.8
		c-0.1-0.2-0.1-0.4-0.3-0.6c-0.1-0.2-0.3-0.3-0.5-0.4c-0.2-0.1-0.5-0.1-0.8-0.1h-0.9v3.5H29.2z"/>
	<path class="st0" d="M33.6,19.1v0.7h0c0.1-0.1,0.1-0.2,0.2-0.3c0.1-0.1,0.2-0.2,0.3-0.3c0.1-0.1,0.2-0.1,0.4-0.2
		c0.1,0,0.3-0.1,0.4-0.1c0.1,0,0.2,0,0.2,0v1c-0.1,0-0.1,0-0.2,0c-0.1,0-0.1,0-0.2,0c-0.2,0-0.4,0-0.5,0.1c-0.1,0.1-0.3,0.2-0.3,0.3
		c-0.1,0.1-0.1,0.3-0.2,0.4c0,0.2-0.1,0.3-0.1,0.5v1.8h-1.1v-4H33.6z"/>
	<path class="st0" d="M35.6,18.5v-0.9h1.1v0.9H35.6z M36.7,19.1v4h-1.1v-4H36.7z"/>
	<path class="st0" d="M38.5,23.1l-1.4-4h1.2l0.8,2.7h0l0.8-2.7h1.1l-1.4,4H38.5z"/>
	<path class="st0" d="M41.6,18.5v-0.9h1.1v0.9H41.6z M42.7,19.1v4h-1.1v-4H42.7z"/>
	<path class="st0" d="M44.6,19.1v0.6h0c0.1-0.2,0.3-0.4,0.5-0.5c0.2-0.1,0.5-0.2,0.7-0.2c0.3,0,0.5,0,0.7,0.1
		c0.2,0.1,0.3,0.2,0.4,0.3c0.1,0.1,0.2,0.3,0.2,0.5c0,0.2,0.1,0.4,0.1,0.7v2.5h-1.1v-2.3c0-0.3-0.1-0.6-0.2-0.7
		c-0.1-0.2-0.3-0.2-0.6-0.2c-0.3,0-0.5,0.1-0.7,0.3c-0.1,0.2-0.2,0.5-0.2,0.9v2.1h-1.1v-4H44.6z"/>
	<path class="st0" d="M52,23.4c0,0.2-0.1,0.4-0.3,0.6c-0.1,0.2-0.4,0.3-0.6,0.5c-0.3,0.1-0.6,0.2-1.1,0.2c-0.2,0-0.4,0-0.6-0.1
		c-0.2,0-0.4-0.1-0.6-0.2c-0.2-0.1-0.3-0.2-0.4-0.4c-0.1-0.2-0.2-0.4-0.2-0.6h1.1c0.1,0.2,0.2,0.4,0.3,0.4c0.1,0.1,0.3,0.1,0.5,0.1
		c0.3,0,0.5-0.1,0.7-0.3c0.1-0.2,0.2-0.4,0.2-0.7v-0.5h0c-0.1,0.2-0.3,0.4-0.5,0.5C50.2,22.9,50,23,49.8,23c-0.3,0-0.6-0.1-0.8-0.2
		c-0.2-0.1-0.4-0.3-0.5-0.4c-0.1-0.2-0.2-0.4-0.3-0.6c-0.1-0.2-0.1-0.5-0.1-0.8c0-0.3,0-0.5,0.1-0.7c0.1-0.2,0.2-0.5,0.3-0.6
		c0.1-0.2,0.3-0.3,0.5-0.4c0.2-0.1,0.5-0.2,0.7-0.2c0.3,0,0.5,0,0.7,0.1c0.2,0.1,0.4,0.3,0.5,0.5h0v-0.5h1v3.8
		C52,23,52,23.2,52,23.4z M50.5,22.1c0.1-0.1,0.2-0.1,0.3-0.2c0.1-0.1,0.1-0.2,0.2-0.4c0-0.1,0.1-0.3,0.1-0.4c0-0.2,0-0.3,0-0.5
		c0-0.1-0.1-0.3-0.2-0.4c-0.1-0.1-0.2-0.2-0.3-0.3c-0.1-0.1-0.3-0.1-0.5-0.1c-0.2,0-0.3,0-0.4,0.1c-0.1,0.1-0.2,0.1-0.3,0.3
		c-0.1,0.1-0.1,0.2-0.2,0.4c0,0.1-0.1,0.3-0.1,0.4c0,0.1,0,0.3,0,0.4c0,0.1,0.1,0.3,0.1,0.4c0.1,0.1,0.2,0.2,0.3,0.3
		c0.1,0.1,0.3,0.1,0.4,0.1C50.2,22.1,50.3,22.1,50.5,22.1z"/>
	<path class="st0" d="M59.3,17.6v1h-2.9v1.2h2.7v0.9h-2.7v1.4h3v1h-4.2v-5.5H59.3z"/>
	<path class="st0" d="M61.2,19.1v0.6h0c0.1-0.2,0.3-0.4,0.5-0.5c0.2-0.1,0.5-0.2,0.7-0.2c0.3,0,0.5,0,0.7,0.1
		c0.2,0.1,0.3,0.2,0.4,0.3c0.1,0.1,0.2,0.3,0.2,0.5c0,0.2,0.1,0.4,0.1,0.7v2.5h-1.1v-2.3c0-0.3-0.1-0.6-0.2-0.7
		c-0.1-0.2-0.3-0.2-0.6-0.2c-0.3,0-0.5,0.1-0.7,0.3c-0.1,0.2-0.2,0.5-0.2,0.9v2.1h-1.1v-4H61.2z"/>
	<path class="st0" d="M65.9,22.1c0.2,0.2,0.4,0.2,0.7,0.2c0.2,0,0.4-0.1,0.6-0.2c0.2-0.1,0.3-0.2,0.3-0.4h1c-0.2,0.5-0.4,0.8-0.7,1
		c-0.3,0.2-0.7,0.3-1.2,0.3c-0.3,0-0.6-0.1-0.9-0.2c-0.3-0.1-0.5-0.2-0.6-0.4c-0.2-0.2-0.3-0.4-0.4-0.7c-0.1-0.3-0.1-0.5-0.1-0.9
		c0-0.3,0-0.6,0.1-0.8c0.1-0.3,0.2-0.5,0.4-0.7c0.2-0.2,0.4-0.3,0.6-0.4C66,19,66.3,19,66.6,19c0.3,0,0.6,0.1,0.9,0.2
		c0.3,0.1,0.5,0.3,0.6,0.5s0.3,0.5,0.4,0.8c0.1,0.3,0.1,0.6,0.1,0.9h-2.9C65.6,21.7,65.7,22,65.9,22.1z M67.1,20
		c-0.1-0.1-0.3-0.2-0.6-0.2c-0.2,0-0.3,0-0.4,0.1C66,20,65.9,20,65.8,20.1c-0.1,0.1-0.1,0.2-0.1,0.3c0,0.1,0,0.2-0.1,0.3h1.8
		C67.4,20.4,67.3,20.2,67.1,20z"/>
	<path class="st0" d="M70.2,19.1v0.7h0c0.1-0.1,0.1-0.2,0.2-0.3c0.1-0.1,0.2-0.2,0.3-0.3c0.1-0.1,0.2-0.1,0.4-0.2
		c0.1,0,0.3-0.1,0.4-0.1c0.1,0,0.2,0,0.2,0v1c-0.1,0-0.1,0-0.2,0c-0.1,0-0.1,0-0.2,0c-0.2,0-0.4,0-0.5,0.1c-0.1,0.1-0.3,0.2-0.3,0.3
		c-0.1,0.1-0.1,0.3-0.2,0.4c0,0.2-0.1,0.3-0.1,0.5v1.8h-1.1v-4H70.2z"/>
	<path class="st0" d="M75.8,23.4c0,0.2-0.1,0.4-0.3,0.6c-0.1,0.2-0.4,0.3-0.6,0.5c-0.3,0.1-0.6,0.2-1.1,0.2c-0.2,0-0.4,0-0.6-0.1
		c-0.2,0-0.4-0.1-0.6-0.2c-0.2-0.1-0.3-0.2-0.4-0.4c-0.1-0.2-0.2-0.4-0.2-0.6h1.1c0.1,0.2,0.2,0.4,0.3,0.4c0.1,0.1,0.3,0.1,0.5,0.1
		c0.3,0,0.5-0.1,0.7-0.3c0.1-0.2,0.2-0.4,0.2-0.7v-0.5h0c-0.1,0.2-0.3,0.4-0.5,0.5C74,22.9,73.8,23,73.6,23c-0.3,0-0.6-0.1-0.8-0.2
		c-0.2-0.1-0.4-0.3-0.5-0.4c-0.1-0.2-0.2-0.4-0.3-0.6c-0.1-0.2-0.1-0.5-0.1-0.8c0-0.3,0-0.5,0.1-0.7c0.1-0.2,0.2-0.5,0.3-0.6
		c0.1-0.2,0.3-0.3,0.5-0.4C73,19,73.3,19,73.6,19c0.3,0,0.5,0,0.7,0.1c0.2,0.1,0.4,0.3,0.5,0.5h0v-0.5h1v3.8
		C75.8,23,75.8,23.2,75.8,23.4z M74.2,22.1c0.1-0.1,0.2-0.1,0.3-0.2c0.1-0.1,0.1-0.2,0.2-0.4c0-0.1,0.1-0.3,0.1-0.4
		c0-0.2,0-0.3,0-0.5c0-0.1-0.1-0.3-0.2-0.4c-0.1-0.1-0.2-0.2-0.3-0.3c-0.1-0.1-0.3-0.1-0.5-0.1c-0.2,0-0.3,0-0.4,0.1
		c-0.1,0.1-0.2,0.1-0.3,0.3c-0.1,0.1-0.1,0.2-0.2,0.4c0,0.1-0.1,0.3-0.1,0.4c0,0.1,0,0.3,0,0.4c0,0.1,0.1,0.3,0.1,0.4
		c0.1,0.1,0.2,0.2,0.3,0.3c0.1,0.1,0.3,0.1,0.4,0.1C74,22.1,74.1,22.1,74.2,22.1z"/>
	<path class="st0" d="M78.2,24.3c-0.2,0.1-0.5,0.2-0.9,0.2c-0.1,0-0.2,0-0.3,0c-0.1,0-0.2,0-0.3,0v-0.9c0.1,0,0.2,0,0.3,0
		c0.1,0,0.2,0,0.3,0c0.1,0,0.3-0.1,0.3-0.2c0.1-0.1,0.1-0.2,0.1-0.3c0-0.1,0-0.2,0-0.2l-1.4-3.8h1.2l0.9,2.7h0l0.9-2.7h1.1l-1.7,4.5
		C78.6,23.9,78.4,24.1,78.2,24.3z"/>
</g>
</svg>
